<?xml version="1.0" encoding="UTF-8" standalone="no"?>
<!-- Created with Inkscape (http://www.inkscape.org/) -->

<svg
   xmlns:dc="http://purl.org/dc/elements/1.1/"
   xmlns:cc="http://creativecommons.org/ns#"
   xmlns:rdf="http://www.w3.org/1999/02/22-rdf-syntax-ns#"
   xmlns:svg="http://www.w3.org/2000/svg"
   xmlns="http://www.w3.org/2000/svg"
   xmlns:sodipodi="http://sodipodi.sourceforge.net/DTD/sodipodi-0.dtd"
   xmlns:inkscape="http://www.inkscape.org/namespaces/inkscape"
   width="84.241478mm"
   height="37.440659mm"
   viewBox="0 0 84.241478 37.440659"
   version="1.1"
   id="svg3921"
   inkscape:version="0.92.3 (unknown)"
   sodipodi:docname="vniro_en.svg">
  <defs
     id="defs3915" />
  <sodipodi:namedview
     id="base"
     pagecolor="#ffffff"
     bordercolor="#666666"
     borderopacity="1.0"
     inkscape:pageopacity="0.0"
     inkscape:pageshadow="2"
     inkscape:zoom="0.35"
     inkscape:cx="146.33936"
     inkscape:cy="376.46828"
     inkscape:document-units="mm"
     inkscape:current-layer="layer1"
     showgrid="false"
     fit-margin-top="0"
     fit-margin-left="0"
     fit-margin-right="0"
     fit-margin-bottom="0"
     inkscape:window-width="1366"
     inkscape:window-height="715"
     inkscape:window-x="0"
     inkscape:window-y="0"
     inkscape:window-maximized="1" />
  <metadata
     id="metadata3918">
    <rdf:RDF>
      <cc:Work
         rdf:about="">
        <dc:format>image/svg+xml</dc:format>
        <dc:type
           rdf:resource="http://purl.org/dc/dcmitype/StillImage" />
        <dc:title></dc:title>
      </cc:Work>
    </rdf:RDF>
  </metadata>
  <g
     inkscape:label="Layer 1"
     inkscape:groupmode="layer"
     id="layer1"
     transform="translate(-53.885212,-210.99991)">
    <g
       transform="matrix(0.26458333,0,0,0.26458333,52.462812,209.44548)"
       id="g153">
      <path
         d="m 199.949,32.409 c 61.582,0 114.648,18.016 123.82,26.533 -57.488,19.653 -97.287,52.205 -106.131,60.927 0,0 -0.151,-17.236 8.816,-26.326 -9.044,-25.702 -11.88,-18.262 -26.505,-61.134"
         id="path123"
         inkscape:connector-curvature="0"
         style="fill:#98b9eb" />
      <path
         d="m 116.33,23.761 c 8.599,-8.354 65.686,-8.551 83.619,-0.197 5.404,16.46 19.531,49.381 26.533,70.01 -35.5,0 -79.722,27.154 -88.442,36.121 0,0 0,-17.564 8.844,-26.532 C 135.955,77.136 130.955,66.633 116.33,23.761"
         id="path125"
         inkscape:connector-curvature="0"
         style="fill:#3e8ede" />
      <path
         d="M 111.565,11.185 C 98.138,6.689 81.928,5.875 76.13,5.875 c -21.292,0 -62.156,8.845 -70.754,26.533 9.499,25.222 34.23,89.425 44.221,114.975 0.43,-0.123 21.374,-44.29 97.287,-44.221 C 116.33,23.761 114.58,19.011 111.565,11.185"
         id="path127"
         inkscape:connector-curvature="0"
         style="fill:#003a70" />
      <polygon
         points="199.525,79.629 194.217,78.108 191.129,82.685 190.937,77.167 185.629,75.644 190.817,73.756 190.625,68.238 194.024,72.588 199.213,70.701 196.125,75.279 "
         id="polygon129"
         style="fill:#ffffff" />
      <polygon
         points="70.195,61.922 64.356,60.248 60.959,65.284 60.747,59.213 54.908,57.539 60.616,55.462 60.404,49.391 64.144,54.178 69.852,52.1 66.455,57.136 "
         id="polygon131"
         style="fill:#ffffff" />
      <polygon
         points="71.487,37.017 65.648,35.343 62.251,40.379 62.039,34.308 56.2,32.634 61.908,30.557 61.696,24.486 65.436,29.273 71.144,27.195 67.747,32.231 "
         id="polygon133"
         style="fill:#ffffff" />
      <polygon
         points="153.262,47.329 147.952,45.807 144.865,50.385 144.672,44.866 139.364,43.344 144.553,41.456 144.36,35.937 147.76,40.288 152.949,38.4 149.861,42.978 "
         id="polygon135"
         style="fill:#ffffff" />
      <polygon
         points="174.467,66.854 169.158,65.333 166.07,69.911 165.878,64.391 160.57,62.87 165.759,60.981 165.566,55.462 168.966,59.813 174.154,57.925 171.066,62.503 "
         id="polygon137"
         style="fill:#ffffff" />
      <polygon
         points="122.277,83.751 116.968,82.23 113.881,86.808 113.688,81.289 108.38,79.767 113.569,77.878 113.376,72.36 116.776,76.71 121.965,74.823 118.877,79.401 "
         id="polygon139"
         style="fill:#ffffff" />
      <polygon
         points="105.308,41.128 99.999,39.606 96.912,44.184 96.719,38.665 91.411,37.143 96.6,35.255 96.407,29.736 99.807,34.087 104.996,32.199 101.908,36.777 "
         id="polygon141"
         style="fill:#ffffff" />
      <path
         d="m 26.965,28.804 c -0.977,0.37 -1.954,0.746 -2.93,1.127 0.209,3.067 0.486,7.156 0.696,10.223 -0.011,0.004 -0.021,0.009 -0.032,0.014 -1.932,-2.371 -4.509,-5.532 -6.441,-7.903 -0.96,0.4 -1.916,0.804 -2.867,1.213 3.073,3.723 6.147,7.445 9.22,11.168 1.059,-0.435 2.121,-0.864 3.186,-1.287 -0.452,-7.97 -0.452,-7.97 -0.832,-14.555"
         id="path143"
         inkscape:connector-curvature="0"
         style="fill:#ffffff" />
      <path
         d="m 34.446,48.821 c -0.886,0.337 -1.771,0.678 -2.655,1.024 l 3.429,8.659 c -0.013,0.006 -0.026,0.011 -0.04,0.016 -2.632,-1.952 -6.145,-4.552 -8.782,-6.499 -0.929,0.386 -1.854,0.775 -2.774,1.17 l 5.11,12.905 c 0.868,-0.372 1.739,-0.74 2.614,-1.104 l -3.42,-8.635 c 0.014,-0.006 0.027,-0.012 0.041,-0.018 2.629,1.941 6.131,4.532 8.755,6.479 0.943,-0.369 1.888,-0.734 2.832,-1.093 l -5.11,-12.904"
         id="path145"
         inkscape:connector-curvature="0"
         style="fill:#ffffff" />
      <path
         d="m 38.294,70.263 c -0.944,0.375 -1.886,0.756 -2.826,1.141 L 40.576,84.3 c 0.939,-0.386 1.881,-0.766 2.825,-1.142 L 38.294,70.263"
         id="path147"
         inkscape:connector-curvature="0"
         style="fill:#ffffff" />
      <path
         d="M 44.64,97.523 43.205,93.9 c 1.025,-0.425 2.054,-0.845 3.085,-1.258 2.795,-1.076 2.997,1.98 2.76,2.536 -0.278,0.652 -1.012,0.957 -1.325,1.088 -1.031,0.413 -2.06,0.833 -3.085,1.257 m 1.78,-7.493 c -2.313,0.917 -4.615,1.865 -6.89,2.838 l 5.11,12.903 c 0.929,-0.396 1.863,-0.79 2.799,-1.178 l -1.997,-5.044 c 0.934,-0.387 1.872,-0.771 2.812,-1.148 1.154,-0.444 1.712,-0.255 2.194,0.165 1.191,1.04 1.37,2.711 2.404,3.849 0.943,-0.368 1.887,-0.731 2.832,-1.089 -1.96,-1.384 -1.512,-5.408 -4.825,-5.141 l -0.016,-0.04 c 2.505,-2.425 0.293,-6.413 -2.748,-6.446 -0.802,-0.01 -1.459,0.247 -1.675,0.331"
         id="path149"
         inkscape:connector-curvature="0"
         style="fill:#ffffff" />
      <path
         d="m 56.154,119.502 c -4.161,1.623 -6.605,-4.175 -5.399,-6.944 0.961,-2.203 5.176,-3.826 7.183,1.242 0.821,2.077 0.784,4.665 -1.784,5.702 m -4.407,-11.128 c -6.612,2.76 -4.64,11.569 0.26,13.608 4.806,2.001 11.539,-2.653 8.699,-9.446 -1.385,-3.314 -4.692,-5.885 -8.959,-4.162"
         id="path151"
         inkscape:connector-curvature="0"
         style="fill:#ffffff" />
    </g>
  </g>
</svg>
