<?xml version="1.0" encoding="UTF-8" standalone="no"?>
<!-- Created with Inkscape (http://www.inkscape.org/) -->

<svg
   xmlns:dc="http://purl.org/dc/elements/1.1/"
   xmlns:cc="http://creativecommons.org/ns#"
   xmlns:rdf="http://www.w3.org/1999/02/22-rdf-syntax-ns#"
   xmlns:svg="http://www.w3.org/2000/svg"
   xmlns="http://www.w3.org/2000/svg"
   xmlns:sodipodi="http://sodipodi.sourceforge.net/DTD/sodipodi-0.dtd"
   xmlns:inkscape="http://www.inkscape.org/namespaces/inkscape"
   width="84.241737mm"
   height="37.440659mm"
   viewBox="0 0 84.241737 37.440659"
   version="1.1"
   id="svg4719"
   inkscape:version="0.92.3 (unknown)"
   sodipodi:docname="vniro_ru.svg">
  <defs
     id="defs4713" />
  <sodipodi:namedview
     id="base"
     pagecolor="#ffffff"
     bordercolor="#666666"
     borderopacity="1.0"
     inkscape:pageopacity="0.0"
     inkscape:pageshadow="2"
     inkscape:zoom="0.35"
     inkscape:cx="232.05413"
     inkscape:cy="-317.81743"
     inkscape:document-units="mm"
     inkscape:current-layer="layer1"
     showgrid="false"
     fit-margin-top="0"
     fit-margin-left="0"
     fit-margin-right="0"
     fit-margin-bottom="0"
     inkscape:window-width="1366"
     inkscape:window-height="715"
     inkscape:window-x="0"
     inkscape:window-y="0"
     inkscape:window-maximized="1" />
  <metadata
     id="metadata4716">
    <rdf:RDF>
      <cc:Work
         rdf:about="">
        <dc:format>image/svg+xml</dc:format>
        <dc:type
           rdf:resource="http://purl.org/dc/dcmitype/StillImage" />
        <dc:title></dc:title>
      </cc:Work>
    </rdf:RDF>
  </metadata>
  <g
     inkscape:label="Layer 1"
     inkscape:groupmode="layer"
     id="layer1"
     transform="translate(-31.206511,-27.30348)">
    <g
       id="g4770">
      <path
         style="fill:#98b9eb;stroke-width:0.26458332"
         inkscape:connector-curvature="0"
         id="path4489"
         d="m 82.687541,34.32367 c 16.29357,0 30.333949,4.766733 32.760709,7.020189 -15.21036,5.200121 -25.740519,13.812838 -28.080489,16.120269 0,0 -0.04,-4.560358 2.33283,-6.965421 -2.39316,-6.800321 -3.14351,-4.832085 -7.01305,-16.175037" />
      <path
         style="fill:#3e8ede;stroke-width:0.26458332"
         inkscape:connector-curvature="0"
         id="path4491"
         d="m 60.563091,32.035553 c 2.27515,-2.210064 17.37915,-2.262187 22.12419,-0.05212 1.43007,4.355042 5.16784,13.06539 7.02019,18.523479 -9.39271,0 -21.09285,7.184496 -23.40028,9.557015 0,0 0,-4.647407 2.33998,-7.019925 -2.89164,-6.886311 -4.21455,-9.665229 -8.08408,-21.008446" />
      <path
         style="fill:#003a70;stroke-width:0.26458332"
         inkscape:connector-curvature="0"
         id="path4493"
         d="m 59.302351,28.707889 c -3.55256,-1.189302 -7.84146,-1.404409 -9.37551,-1.404409 -5.63351,0 -16.44545,2.339975 -18.72033,7.02019 2.51327,6.67332 9.05668,23.660364 11.70014,30.420468 0.11377,-0.03254 5.6552,-11.718396 25.74051,-11.700139 -8.08407,-21.008446 -8.5471,-22.265216 -9.34481,-24.33611" />
      <polygon
         style="fill:#ffffff"
         id="polygon4495"
         points="185.628,75.754 190.817,73.866 190.625,68.347 194.024,72.699 199.213,70.81 196.125,75.388 199.525,79.739 194.217,78.217 191.129,82.795 190.937,77.277 "
         transform="matrix(0.26458333,0,0,0.26458333,29.784111,25.719685)" />
      <polygon
         style="fill:#ffffff"
         id="polygon4497"
         points="54.908,57.649 60.616,55.572 60.404,49.501 64.144,54.288 69.852,52.21 66.455,57.246 70.195,62.032 64.356,60.358 60.959,65.394 60.747,59.323 "
         transform="matrix(0.26458333,0,0,0.26458333,29.784111,25.719685)" />
      <polygon
         style="fill:#ffffff"
         id="polygon4499"
         points="56.2,32.744 61.908,30.667 61.696,24.596 65.436,29.383 71.144,27.305 67.747,32.341 71.487,37.127 65.648,35.453 62.251,40.489 62.039,34.418 "
         transform="matrix(0.26458333,0,0,0.26458333,29.784111,25.719685)" />
      <polygon
         style="fill:#ffffff"
         id="polygon4501"
         points="139.364,43.454 144.553,41.566 144.36,36.047 147.76,40.398 152.949,38.51 149.861,43.088 153.261,47.439 147.952,45.917 144.865,50.495 144.672,44.976 "
         transform="matrix(0.26458333,0,0,0.26458333,29.784111,25.719685)" />
      <polygon
         style="fill:#ffffff"
         id="polygon4503"
         points="160.57,62.979 165.759,61.091 165.566,55.572 168.966,59.923 174.155,58.035 171.067,62.613 174.467,66.964 169.158,65.442 166.071,70.021 165.878,64.501 "
         transform="matrix(0.26458333,0,0,0.26458333,29.784111,25.719685)" />
      <polygon
         style="fill:#ffffff"
         id="polygon4505"
         points="108.38,79.877 113.569,77.989 113.376,72.47 116.776,76.821 121.965,74.933 118.877,79.511 122.277,83.862 116.968,82.34 113.881,86.918 113.688,81.399 "
         transform="matrix(0.26458333,0,0,0.26458333,29.784111,25.719685)" />
      <polygon
         style="fill:#ffffff"
         id="polygon4507"
         points="91.411,37.253 96.6,35.365 96.407,29.846 99.807,34.197 104.996,32.309 101.908,36.887 105.308,41.238 99.999,39.716 96.912,44.294 96.719,38.775 "
         transform="matrix(0.26458333,0,0,0.26458333,29.784111,25.719685)" />
      <path
         style="fill:#ffffff;stroke-width:0.26458332"
         inkscape:connector-curvature="0"
         id="path4509"
         d="m 35.568161,37.165295 -0.36142,-0.94959 c 1.03082,-0.417247 1.03082,-0.417247 1.20439,-0.382587 0.31088,0.06244 0.44555,0.47916 0.35057,0.694796 -0.055,0.124883 -0.18627,0.229658 -0.39,0.311679 l -0.80354,0.325702 m -0.56091,-1.467379 -0.30745,-0.808038 c 0.2331,-0.09525 0.46725,-0.189706 0.7022,-0.283104 0.70221,-0.275431 0.74639,0.373327 0.67998,0.518054 -0.0778,0.169069 -0.25638,0.242888 -0.31511,0.26723 -0.254,0.100806 -0.50748,0.202935 -0.75962,0.305858 m 0.32252,-1.743075 c -0.48048,0.194469 -1.12051,0.454819 -1.59861,0.654844 0.39608,1.036637 0.92393,2.418556 1.32001,3.455193 2.1463,-0.889264 2.1463,-0.889264 2.37887,-1.215495 0.40613,-0.569119 0.0225,-1.332707 -0.43366,-1.510771 -0.18282,-0.07117 -0.35824,-0.05847 -0.43312,-0.05292 0.57521,-0.632354 0.0746,-1.509712 -0.63738,-1.477169 -0.15849,0.0077 -0.38682,0.06377 -0.59611,0.146315" />
      <path
         style="fill:#ffffff;stroke-width:0.26458332"
         inkscape:connector-curvature="0"
         id="path4511"
         d="m 38.632831,38.73639 -0.75618,0.289455 0.50642,1.323445 c -0.41593,0.164836 -0.97076,0.383646 -1.3851,0.552715 l -0.50615,-1.32371 c -0.2487,0.101864 -0.49609,0.204522 -0.74215,0.308504 0.39581,1.036373 0.92392,2.418291 1.32,3.454929 l 0.74348,-0.31115 -0.57203,-1.489869 c 0.45879,-0.187589 0.92128,-0.371475 1.38589,-0.550598 l 0.56912,1.488546 c 0.25241,-0.09737 0.50562,-0.19341 0.75909,-0.288131 -0.39688,-1.036109 -0.92578,-2.417763 -1.32239,-3.454136" />
      <path
         style="fill:#ffffff;stroke-width:0.26458332"
         inkscape:connector-curvature="0"
         id="path4513"
         d="m 40.670921,44.006361 c -0.28337,0.105834 -0.56648,0.213254 -0.84879,0.322527 -0.11774,0.874448 -0.27305,2.040467 -0.38788,2.915179 -0.005,0.0019 -0.01,0.004 -0.0148,0.0061 -0.27411,-0.718622 -0.63976,-1.676679 -0.91414,-2.395287 l -0.73924,0.309827 c 0.39634,1.035315 0.92498,2.416175 1.32133,3.451754 0.27596,-0.116416 0.55377,-0.23151 0.8329,-0.345281 0.1151,-0.875506 0.26961,-2.042848 0.38709,-2.91809 0.005,-0.0019 0.0101,-0.0037 0.0151,-0.0056 0.27464,0.719667 0.64109,1.679575 0.91572,2.399242 l 0.75433,-0.288352 c -0.39635,-1.035579 -0.92498,-2.41644 -1.32159,-3.452019" />
      <path
         style="fill:#ffffff;stroke-width:0.26458332"
         inkscape:connector-curvature="0"
         id="path4515"
         d="m 41.149811,51.756007 -0.39634,-1.034256 c 0.84799,-0.345811 0.91704,-0.373856 1.11971,-0.315384 0.28919,0.08334 0.43921,0.49239 0.33999,0.736865 -0.0265,0.06562 -0.0889,0.219075 -0.47995,0.377296 -0.195,0.07779 -0.38947,0.156104 -0.58341,0.235479 m 0.18601,-1.950244 -0.0201,0.0079 c -0.45984,0.186834 -1.07314,0.435807 -1.53087,0.627894 l 1.32133,3.452019 c 0.24606,-0.103981 0.49371,-0.20664 0.74242,-0.30824 l -0.47361,-1.237985 c 1.22317,-0.4953 1.41103,-0.571236 1.58406,-1.045898 0.204,-0.559065 -0.11006,-1.300956 -0.64611,-1.526646 -0.43101,-0.181769 -0.84217,-0.0217 -0.9771,0.03096" />
      <path
         style="fill:#ffffff;stroke-width:0.26458332"
         inkscape:connector-curvature="0"
         id="path4517"
         d="m 44.249941,57.514928 c -1.17105,0.447146 -1.70498,-1.21285 -1.41367,-1.864783 0.26273,-0.588169 1.38959,-1.014678 1.90711,0.345545 0.21167,0.556419 0.19341,1.247775 -0.49344,1.519238 m -1.13877,-2.979208 c -1.76027,0.719402 -1.26101,3.074722 0.0323,3.631406 1.27079,0.546894 3.07287,-0.681038 2.33891,-2.504281 -0.35745,-0.886884 -1.22872,-1.579034 -2.37119,-1.127125" />
    </g>
  </g>
</svg>
